<svg width="145" height="38" viewBox="0 0 145 38" fill="none" xmlns="http://www.w3.org/2000/svg">
<g filter="url(#filter0_dd_10056_2053)">
<rect x="3.1" y="2.1" width="31.8" height="31.8" rx="7.9" fill="white"/>
<rect x="3.1" y="2.1" width="31.8" height="31.8" rx="7.9" fill="url(#paint0_linear_10056_2053)"/>
<rect x="3.1" y="2.1" width="31.8" height="31.8" rx="7.9" stroke="#D0D5DD" stroke-width="0.2"/>
<path fill-rule="evenodd" clip-rule="evenodd" d="M16.5262 7C14.6718 7 13.2101 7.49456 11.9112 8.73751C10.5982 9.9941 10.0655 11.8669 10.0654 13.6704L10.0654 14.3748C10.0654 19.4347 14.1673 23.5393 19.2273 23.5393H19.7941C20.8532 23.5393 21.6757 22.6163 21.554 21.5642L21.4559 20.7158C21.3794 20.0546 20.8097 19.5692 20.1445 19.5471C17.3651 19.4549 14.888 18.5817 14.8881 13.6705C14.8881 12.3596 15.3655 11.0581 16.8267 11.0581H21.1965C22.5177 11.0581 23.5892 12.1762 23.5892 13.5086V21.2988V21.98C23.5892 23.6539 22.2322 25.011 20.5582 25.011H18.0006C17.457 25.011 17.0163 25.4517 17.0163 25.9953V28.0156C17.0163 28.5593 17.457 29 18.0006 29H21.8729C25.2209 29 27.9349 26.286 27.9349 22.938V12.4322C27.9349 9.43206 25.5029 7 22.5027 7H16.5262Z" fill="#262B31"/>
<path d="M20.1797 16.2756C20.1797 15.8191 20.5498 15.449 21.0063 15.449C21.4629 15.449 21.833 15.8191 21.833 16.2756C21.833 16.7321 21.4629 17.1022 21.0063 17.1022C20.5498 17.1022 20.1797 16.7321 20.1797 16.2756Z" fill="#262B31"/>
</g>
<path d="M84.3193 14.1555C84.3193 13.7275 84.4652 13.3677 84.757 13.0759C85.0488 12.7841 85.4087 12.6382 85.8367 12.6382C86.2646 12.6382 86.6245 12.7841 86.9163 13.0759C87.2275 13.3677 87.3832 13.7275 87.3832 14.1555C87.3832 14.5835 87.2275 14.9531 86.9163 15.2643C86.6245 15.5561 86.2646 15.702 85.8367 15.702C85.3892 15.702 85.0391 15.5464 84.7862 15.2351C84.475 14.9434 84.3193 14.5835 84.3193 14.1555Z" fill="#FF8B49"/>
<path fill-rule="evenodd" clip-rule="evenodd" d="M68.2694 24.6399L68.272 24.6425L68.2747 24.645C69.1523 25.4908 70.2407 25.9148 71.5055 25.9148H73.5262C74.1284 25.9148 74.6166 25.4266 74.6166 24.8244V23.799C74.6166 23.1968 74.1284 22.7086 73.5262 22.7086H71.8703C71.4411 22.7086 71.148 22.5909 70.9357 22.3927C70.7395 22.1697 70.6157 21.8473 70.6157 21.3718V15.8489H73.5178C74.12 15.8489 74.6082 15.3607 74.6082 14.7585V13.7056C74.6082 13.1034 74.12 12.6152 73.5178 12.6152H70.6157V10.1542C70.6157 9.55194 70.1275 9.06374 69.5253 9.06373L68.0475 9.06372C67.4452 9.06372 66.957 9.55192 66.957 10.1541L66.9571 21.3079C66.9571 22.637 67.385 23.7632 68.2694 24.6399Z" fill="#262B31"/>
<path d="M61.8463 8.58407C61.5093 8.92105 61.3408 9.33025 61.3408 9.81166C61.3408 10.3171 61.5213 10.7384 61.8824 11.0754C62.2194 11.4364 62.6406 11.6169 63.1461 11.6169C63.6275 11.6169 64.0367 11.4485 64.3737 11.1115C64.7348 10.7504 64.9153 10.3171 64.9153 9.81166C64.9153 9.33025 64.7348 8.92105 64.3737 8.58407C64.0367 8.22301 63.6275 8.04248 63.1461 8.04248C62.6406 8.04248 62.2074 8.22301 61.8463 8.58407Z" fill="#28A0F6"/>
<path d="M61.3408 24.8243C61.3408 25.4266 61.829 25.9148 62.4312 25.9148H63.8248C64.4271 25.9148 64.9153 25.4266 64.9153 24.8244L64.9153 13.7286C64.9153 13.1264 64.4271 12.6382 63.8249 12.6382L62.4314 12.6382C61.8291 12.6382 61.3409 13.1264 61.3409 13.7286L61.3408 24.8243Z" fill="#262B31"/>
<path fill-rule="evenodd" clip-rule="evenodd" d="M92.4245 14.6874L92.4261 14.6892L92.4278 14.691C93.0785 15.3614 93.8704 15.7021 94.7899 15.7021C95.5631 15.7021 96.2167 15.4906 96.7274 15.0493V15.1472C96.7274 15.4407 96.9673 15.6788 97.2632 15.6788H98.0809C98.3768 15.6788 98.6167 15.4407 98.6167 15.1472V14.8258V6.5316C98.6167 6.23801 98.3768 6 98.0809 6L97.2586 6C96.9627 6 96.7228 6.23801 96.7228 6.5316V9.09809L96.7223 9.21918C96.7223 9.21918 96.6585 9.16926 96.5909 9.11632C96.1135 8.74233 95.5497 8.55766 94.9117 8.55766C93.9517 8.55766 93.131 8.88834 92.4661 9.54809C91.7965 10.2124 91.4678 11.0693 91.4678 12.0954C91.4678 13.1293 91.7823 14.0004 92.4245 14.6874ZM96.249 10.7991L96.2503 10.8005L96.2516 10.802C96.5875 11.1656 96.7576 11.6086 96.7576 12.1472C96.7576 12.7011 96.591 13.1356 96.2713 13.4726C95.9496 13.8118 95.5599 13.9785 95.0857 13.9785C94.6111 13.9785 94.2069 13.8112 93.8599 13.467C93.5193 13.1291 93.3443 12.6965 93.3443 12.1472C93.3443 11.5957 93.5151 11.1548 93.8476 10.8048C94.196 10.4389 94.5987 10.264 95.0683 10.264C95.5373 10.264 95.9256 10.4382 96.249 10.7991Z" fill="#262B31"/>
<path d="M88.9876 15.7022H89.8636C90.1857 15.7022 90.4468 15.4641 90.4468 15.1705L90.4469 9.08491C90.4469 8.79128 90.1857 8.55324 89.8636 8.55323L88.9875 8.55322C88.6654 8.55322 88.4043 8.79126 88.4043 9.08491L88.4044 15.1705C88.4044 15.4641 88.6655 15.7022 88.9876 15.7022Z" fill="#262B31"/>
<path d="M90.4469 7.02128C90.4469 7.58531 89.9896 8.04255 89.4256 8.04255C88.8615 8.04255 88.4043 7.58531 88.4043 7.02128C88.4043 6.45724 88.8615 6 89.4256 6C89.9896 6 90.4469 6.45724 90.4469 7.02128Z" fill="#262B31"/>
<path d="M77.1428 13.6671L77.1401 13.6691L77.1376 13.6711C76.139 14.437 75.6387 15.4767 75.6387 16.7384C75.6387 17.6764 76.0243 18.4836 76.7599 19.1341C77.4788 19.7699 78.8925 20.3308 80.2297 20.7236C80.9988 20.9495 81.6019 21.202 81.8875 21.4509C82.1612 21.6893 82.1817 22.2007 81.8864 22.4275C81.6782 22.5876 81.3569 22.6948 80.8613 22.6948H77.1953C76.5931 22.6948 76.1049 23.1829 76.1049 23.7852V24.8244C76.1049 25.4266 76.5931 25.9148 77.1953 25.9148H80.7948C82.2232 25.9148 83.4066 25.6628 84.3643 24.8845L84.3653 24.8838C85.3523 24.0778 85.8514 23.0233 85.8514 21.7624C85.8514 20.4882 85.3669 19.4695 84.3549 18.8013C83.9544 18.5368 83.5661 18.3554 83.0757 18.1363C82.3642 17.8185 81.5757 17.4883 80.5886 17.2285C79.975 17.0671 79.5388 16.9312 79.3445 16.7671C79.1043 16.5642 79.1487 16.1778 79.4312 16.0047C79.6533 15.8687 80.1033 15.8506 80.7616 15.8506H82.568C83.1702 15.8506 83.6584 15.3624 83.6584 14.7602V13.7286C83.6584 13.1264 83.1702 12.6382 82.568 12.6382L80.961 12.6382C79.4361 12.6382 78.1469 12.9161 77.1428 13.6671Z" fill="#262B31"/>
<path fill-rule="evenodd" clip-rule="evenodd" d="M50.1694 12.1277C48.6857 12.1277 47.5161 12.5295 46.4769 13.5392C45.4262 14.56 45 16.0815 45 17.5466L45 18.1188C45 22.2294 48.282 25.5639 52.3306 25.5639H53.3573C53.8782 25.5639 54.283 25.1104 54.224 24.5929L54.0672 23.2158C54.0096 22.71 53.5733 22.3379 53.0645 22.3207C-nan -nan -nan -nan 53.0645 22.3207L-nan -nanL53.0645 22.3207C50.8406 22.2458 48.8587 21.5364 48.8587 17.5467C48.8588 16.4817 49.2407 15.4244 50.4099 15.4244H53.9063C54.9634 15.4244 55.8207 16.3327 55.8207 17.4152V23.7438V24.2971C55.8207 25.657 54.7349 26.7594 53.3955 26.7594H51.3492C50.9142 26.7594 50.5616 27.1174 50.5616 27.5591V29.2003C50.5616 29.642 50.9142 30 51.3492 30H54.4475C57.1263 30 59.2979 27.7952 59.2979 25.0754V16.5407C59.2979 14.1034 57.3519 12.1277 54.9514 12.1277H50.1694Z" fill="#262B31"/>
<path d="M53.1699 20.0426C53.1699 19.6195 53.5129 19.2766 53.9359 19.2766C54.3589 19.2766 54.7018 19.6195 54.7018 20.0426C54.7018 20.4656 54.3589 20.8085 53.9359 20.8085C53.5129 20.8085 53.1699 20.4656 53.1699 20.0426Z" fill="#262B31"/>
<defs>
<filter id="filter0_dd_10056_2053" x="0" y="0" width="38" height="38" filterUnits="userSpaceOnUse" color-interpolation-filters="sRGB">
<feFlood flood-opacity="0" result="BackgroundImageFix"/>
<feColorMatrix in="SourceAlpha" type="matrix" values="0 0 0 0 0 0 0 0 0 0 0 0 0 0 0 0 0 0 127 0" result="hardAlpha"/>
<feOffset dy="1"/>
<feGaussianBlur stdDeviation="1"/>
<feColorMatrix type="matrix" values="0 0 0 0 0.0627451 0 0 0 0 0.0941176 0 0 0 0 0.156863 0 0 0 0.06 0"/>
<feBlend mode="normal" in2="BackgroundImageFix" result="effect1_dropShadow_10056_2053"/>
<feColorMatrix in="SourceAlpha" type="matrix" values="0 0 0 0 0 0 0 0 0 0 0 0 0 0 0 0 0 0 127 0" result="hardAlpha"/>
<feOffset dy="1"/>
<feGaussianBlur stdDeviation="1.5"/>
<feColorMatrix type="matrix" values="0 0 0 0 0.0627451 0 0 0 0 0.0941176 0 0 0 0 0.156863 0 0 0 0.1 0"/>
<feBlend mode="normal" in2="effect1_dropShadow_10056_2053" result="effect2_dropShadow_10056_2053"/>
<feBlend mode="normal" in="SourceGraphic" in2="effect2_dropShadow_10056_2053" result="shape"/>
</filter>
<linearGradient id="paint0_linear_10056_2053" x1="19" y1="2" x2="19" y2="34" gradientUnits="userSpaceOnUse">
<stop stop-color="white"/>
<stop offset="1" stop-color="#D0D5DD"/>
</linearGradient>
</defs>
</svg>
